<svg xmlns="http://www.w3.org/2000/svg" viewBox="0 0 166.91 56.91"><defs><style>.cls-1{fill:#098dad;}.cls-2{fill:#82b3c9;}.cls-3{fill:#75adc3;}.cls-4{fill:#6ea642;}.cls-5{fill:#6fa642;}.cls-6{fill:#6fa742;}.cls-7{fill:#6fa743;}.cls-8{fill:#6ea742;}.cls-9{fill:#0b8ead;}.cls-10{fill:#0e8ead;}.cls-11{fill:#0b8dad;}.cls-12{fill:#0f8eae;}.cls-13{fill:#0c8ead;}.cls-14{fill:#0a8ead;}.cls-15{fill:#0a8dad;}.cls-16{fill:#0d8ead;}.cls-17{fill:#0d8eae;}.cls-18{fill:#0d8fae;}.cls-19{fill:#0f8fae;}.cls-20{fill:#0b8fae;}.cls-21{fill:#0e8eae;}.cls-22{fill:#51a2bb;}.cls-23{fill:#51a2bc;}.cls-24{fill:#fefefe;}.cls-25{fill:#fdfdfd;}.cls-26{fill:#fcfcfc;}</style></defs><g id="Layer_2" data-name="Layer 2"><g id="Layer_1-2" data-name="Layer 1"><path class="cls-1" d="M135,11.51a188.47,188.47,0,0,0-22.82-5.84,211.49,211.49,0,0,0-21-2.86,189.43,189.43,0,0,0-37.57.54A192.56,192.56,0,0,0,17.15,11c-.76.23-1.51.48-2.27.72-.25.12-.5.23-.48-.23A151.87,151.87,0,0,1,37.67,4.33,173.2,173.2,0,0,1,60.21.8C63.62.48,67.06.39,70.48.2c1-.24,2,.12,2.92-.2h3.84c1,.32,2.12,0,3.16.2a174.28,174.28,0,0,1,33.66,4.39,145.27,145.27,0,0,1,21.47,6.65C135.55,11.71,135.25,11.56,135,11.51Z"/><path class="cls-2" d="M80.4.2A7.83,7.83,0,0,1,77.24,0h3.12A1.42,1.42,0,0,0,80.4.2Z"/><path class="cls-3" d="M73.4,0a6.56,6.56,0,0,1-2.92.2c0-.07,0-.13,0-.2Z"/><path class="cls-4" d="M102.86,30.37c0-3.14,0-6.28,0-9.43,0-.86.18-1.28,1.11-1.13a3.43,3.43,0,0,0,1,0c.82-.1,1.32.1,1.16,1.06,0,.21-.15.53.12.63s.39-.21.55-.37a5.14,5.14,0,0,1,5.12-1.54A3.7,3.7,0,0,1,114.13,21c.48.69.76.74,1.36.07a4.65,4.65,0,0,1,5.44-1.34,4.13,4.13,0,0,1,2.84,3.67c.48,5.64.1,11.29.22,16.94,0,.12,0,.29,0,.35-.9.76-2,.19-2.94.32-.72.1-.57-.51-.57-.91q0-7,0-14a7.35,7.35,0,0,0-.17-2.14,2.39,2.39,0,0,0-2.44-1.87,2.27,2.27,0,0,0-2.39,1.77,8.87,8.87,0,0,0-.32,2.71c0,4.42,0,8.84,0,13.26,0,.92-.21,1.22-1.18,1.2-2.35-.07-2.35,0-2.35-2.31,0-4.18,0-8.36,0-12.54a15.3,15.3,0,0,0-.06-1.79,2.3,2.3,0,0,0-2.41-2.3,2.33,2.33,0,0,0-2.63,2.2,19.43,19.43,0,0,0-.22,2.85c0,4.22,0,8.44,0,12.66,0,1-.3,1.25-1.27,1.22-2.17-.06-2.17,0-2.17-2.23Z"/><path class="cls-5" d="M128.53,27.06c0-4.3,0-8.6,0-12.9,0-.83.21-1.09,1.07-1.08,2.35,0,2.35,0,2.35,2.28,0,1.75,0,3.5,0,5.26,0,.17-.12.43.15.5.1,0,.27-.12.37-.22a4.92,4.92,0,0,1,5.64-1c2.16.88,2.78,2.83,2.86,4.86a79.75,79.75,0,0,1-.17,12.17c-.22,2-1,3.65-3.09,4.27a5,5,0,0,1-5.31-1.2c-.16-.17-.4-.44-.54-.4-.34.1-.18.47-.16.71.05.64-.23.79-.84.81-2.32.07-2.32.09-2.32-2.2Z"/><path class="cls-5" d="M166.84,30.6a32.13,32.13,0,0,1-.21,6.43,4.56,4.56,0,0,1-4.1,4.3c-3.6.47-5.86-.45-7-2.8a4.52,4.52,0,0,1-.48-2,94.68,94.68,0,0,1,.14-12c.41-3.62,2.51-5.32,6.15-5.14,3.33.16,5.21,1.84,5.47,5.12C167,26.54,166.84,28.58,166.84,30.6Z"/><path class="cls-6" d="M97.9,31.12c0,2.35,0,4.69,0,7a3.46,3.46,0,0,0,.27,1.75c.84,1.33,0,1.22-.88,1.16a3.78,3.78,0,0,0-1,0c-1.13.15-1.89-.06-1.62-1.46,0-.15.12-.45-.16-.46-.12,0-.27.24-.38.4-1.33,2-3.3,2.13-5.34,1.7a3.58,3.58,0,0,1-2.75-2.43c-1-3-.69-6.41,2.41-8.45a46,46,0,0,0,5.07-3.59,2.76,2.76,0,0,0,.4-3.71,3.05,3.05,0,0,0-3.52-.53,2.31,2.31,0,0,0-1,2.17c0,2.35-.07,2.35-2.47,2.13-.52-.05-.69-.24-.66-.73,0-.71,0-1.43.06-2.14.38-3.26,3-5,6.75-4.53,2.76.33,4.91,2.21,4.75,5.36-.11,2.1,0,4.21,0,6.32Z"/><path class="cls-6" d="M9.35,30.45c0-3.18,0-6.36,0-9.54,0-.92.27-1.22,1.15-1.1a4.26,4.26,0,0,0,1.07,0c.78-.09,1.25.11,1.11,1,0,.16-.1.46.17.47s.32-.18.47-.31a5.41,5.41,0,0,1,5.07-1.4A3.42,3.42,0,0,1,21.07,22a8.74,8.74,0,0,1,.47,2.69c0,5.13,0,10.26,0,15.4,0,.78-.23,1-1,1-2.53,0-2.53,0-2.53-2.47Q18,32.28,18,26A8.9,8.9,0,0,0,18,24.41c-.25-1.59-.9-2.19-2.31-2.21A2.44,2.44,0,0,0,13,24.39a15.62,15.62,0,0,0-.21,2.73q0,6.45,0,12.89c0,.83-.22,1.08-1.07,1.07-2.34,0-2.34,0-2.34-2.27Z"/><path class="cls-4" d="M39.73,30.82c-.11-2.58-.35-5.18.34-7.71a4.54,4.54,0,0,1,4.06-3.51,13.58,13.58,0,0,1,1.56-.08c3.65,0,5.64,1.87,5.82,5.5.09,1.75,0,3.51.06,5.25,0,.7-.24.88-.9.87-2.2,0-4.4,0-6.59,0-.8,0-1.16.17-1.11,1.05.08,1.35,0,2.7.18,4s1,2.37,2.31,2.46c1.57.11,2.35-.49,2.78-2.16a2,2,0,0,0,.13-.7c-.17-1.19.35-1.47,1.48-1.4,1.76.09,1.76,0,1.69,1.83-.12,2.59-1.59,4.63-4,5-3.26.51-5.66.17-7.16-2.44a5.22,5.22,0,0,1-.66-2.63C39.73,34.39,39.73,32.61,39.73,30.82Z"/><path class="cls-5" d="M72.67,29.84c0,2.6,0,4.39,0,6.18s1,2.75,2.76,2.69a2.26,2.26,0,0,0,2.29-2.15,17.42,17.42,0,0,0,.21-2.6c0-.65.24-.79.84-.81,2.65-.09,2.72,0,2.38,2.62a14.76,14.76,0,0,1-.32,1.88,4.43,4.43,0,0,1-3.14,3.44,9.4,9.4,0,0,1-4.62.15,4.13,4.13,0,0,1-3.54-3.59,43.68,43.68,0,0,1,.16-14.34,4.55,4.55,0,0,1,4.22-3.78,9.49,9.49,0,0,1,3.68.16,4.15,4.15,0,0,1,3.3,3.38,17.38,17.38,0,0,1,.37,3.67c0,.55-.16.75-.74.79-2.43.15-2.43.17-2.6-2.29s-1.18-3.45-3.05-3.16a2.16,2.16,0,0,0-1.95,1.8C72.42,26.12,72.76,28.4,72.67,29.84Z"/><path class="cls-5" d="M32.11,17c0,.84-.24,1.84.13,2.46s1.53.23,2.33.29c.51,0,.65.22.69.72.14,1.94.15,2-1.84,1.92-1,0-1.36.2-1.34,1.29.08,4.1,0,8.2,0,12.29,0,2.11.38,2.47,2.51,2.51.45,0,.66.1.65.58-.07,2.53.41,2.32-2.14,2.32-3.4,0-4.54-1.2-4.55-4.65,0-4.37,0-8.75,0-13.12,0-.89-.15-1.29-1.16-1.22A1.51,1.51,0,0,1,26,20.09c.26-.54.79-.33,1.17-.29,1.18.15,1.67-.21,1.53-1.48s0-2.3,0-3.46c0-.56.2-.73.76-.76C32.11,13.93,32.11,13.91,32.11,17Z"/><path class="cls-7" d="M56.42,30.35c0-3.18,0-6.36,0-9.54,0-.78.21-1,1-1,2.36,0,2.36,0,2.36,2.26,0,.23,0,.47,0,.71s-.11.36.12.39.22-.17.29-.3A7.15,7.15,0,0,1,62,20.52a3.53,3.53,0,0,1,.6-.41c.85-.45,2.09-1.07,2.65-.51s.22,2,.21,3.1c0,.43-.5.3-.78.35-3.44.53-4.25,1.29-4.56,4.68-.37,4-.12,8-.13,12,0,1-.21,1.36-1.3,1.32-2.27-.09-2.27,0-2.27-2.27C56.43,36,56.43,33.17,56.42,30.35Z"/><path class="cls-8" d="M149.77,30.1c0,3.3,0,6.61,0,9.91,0,.83-.23,1.08-1.07,1.07-2.37,0-2.37,0-2.37-2.37,0-5.65,0-11.29,0-16.94a3.1,3.1,0,0,0-.68-2.08c-.94-1.19-1.83-2.41-2.74-3.61-.18-.25-.51-.48-.28-.83s.64-.25,1-.12a21.63,21.63,0,0,1,4.86,2.54,3,3,0,0,1,1.3,2.65C149.73,23.58,149.77,26.84,149.77,30.1Z"/><path class="cls-5" d="M.21,30c0-3.18.06-6.37,0-9.55a3.09,3.09,0,0,1,1.39-2.83,21.76,21.76,0,0,1,4.76-2.48c.33-.14.73-.28,1,.09s-.1.65-.31.93Q5.72,17.87,4.4,19.57A3.6,3.6,0,0,0,3.64,22c0,6,0,11.94,0,17.91,0,.94-.25,1.22-1.2,1.19-2.27,0-2.27,0-2.27-2.24Z"/><path class="cls-9" d="M96.16,51.41c0,1.48,0,3,0,4.42,0,.85-.4.87-1,.86s-1.08,0-1.05-.84c.06-1.51,0-3,0-4.54,0-.4.24-1-.17-1.13-.25-.07-.34.69-.47,1.09-.52,1.54-1,3.09-1.48,4.66a.93.93,0,0,1-1.11.77.89.89,0,0,1-1-.72c-.56-1.91-1.21-3.79-1.83-5.67-.06-.17,0-.48-.25-.45s-.14.32-.14.49c0,1.75,0,3.5,0,5.25,0,.79-.13,1.13-1,1.12s-1-.34-1-1.06c0-2.87,0-5.73,0-8.6,0-.83.29-1.05,1-1a3.86,3.86,0,0,0,1,0c.83-.12,1.17.21,1.38,1,.45,1.73,1,3.42,1.59,5.13.08.25.07.62.4.65.09,0,.24-.44.32-.69.48-1.6,1-3.18,1.4-4.8.23-1,.66-1.4,1.75-1.34,2,.11,1.64-.11,1.68,1.64C96.18,49,96.16,50.18,96.16,51.41Z"/><path class="cls-10" d="M98.49,51.36c0-1.51,0-3,0-4.53,0-.59.17-.73.74-.75,2.2-.08,2.19-.1,2.85,2q.73,2.33,1.49,4.65a4,4,0,0,0,.2.42c.06-.14.13-.28.18-.43l1.65-5.6c.25-.83,2.57-1.47,3.19-.88.24.23.13.53.13.8,0,2.94,0,5.89,0,8.83,0,.87-.41.85-1,.86s-1.07,0-1-.85c.06-1.79,0-3.58,0-5.37,0-.17.15-.45-.1-.49s-.25.25-.31.44c-.54,1.74-1.1,3.48-1.64,5.23-.18.56-.3,1.06-1.15,1.06s-1-.42-1.16-1c-.55-1.78-1.15-3.55-1.74-5.32a1.76,1.76,0,0,0-.21-.38,1.45,1.45,0,0,0-.1.41c0,1.79-.06,3.58,0,5.37,0,.9-.4.92-1.08,1s-1-.16-.94-.93c.07-1.47,0-2.94,0-4.42Z"/><path class="cls-11" d="M130,51.45c0,1.31,0,2.62,0,3.93,0,.44.37,1.19-.43,1.26s-1.62.36-2.16-.69c-1-1.87-2.07-3.66-3.13-5.48-.09-.15-.13-.44-.37-.37s-.11.33-.11.51c0,1.71,0,3.42,0,5.13,0,.85-.33.95-1.05,1s-1-.21-1-.94c0-2.86,0-5.72,0-8.58,0-.38-.28-1,.39-1s1.5-.44,2,.5c.95,1.74,2,3.45,3,5.17a9.91,9.91,0,0,0,.59.85c.34-.32.15-.73.16-1.09,0-1.55.06-3.1,0-4.65,0-.87.45-.83,1.05-.83s1.09-.06,1,.83C129.92,48.42,130,49.94,130,51.45Z"/><path class="cls-12" d="M18.73,51.45c0,1.35,0,2.71,0,4.06,0,.39.37,1.1-.41,1.14s-1.52.36-2-.55c-.94-1.7-1.92-3.39-2.91-5.07-.16-.28-.25-.84-.62-.72s-.13.64-.13,1c0,1.43,0,2.87,0,4.3,0,.76-.1,1.14-1,1.13s-1.08-.26-1.06-1.08c0-2.79,0-5.58,0-8.36,0-.39-.35-1.12.41-1.15s1.51-.39,2,.54c1,1.77,2,3.52,3,5.28.15.26.28.74.56.67s.14-.54.15-.83c0-1.63.06-3.27,0-4.89,0-.92.52-.78,1.08-.81s1,.07.93.82C18.69,48.42,18.73,49.94,18.73,51.45Z"/><path class="cls-13" d="M46.87,51.39c0,1.39,0,2.78,0,4.17,0,.38.25,1-.36,1.07s-1.52.47-2-.45c-1.05-1.87-2.13-3.73-3.21-5.58-.11-.19-.15-.5-.45-.43-.07,0-.08.35-.08.54,0,1.71,0,3.42,0,5.13,0,.85-.43.85-1,.85s-1,0-1-.85c.05-2.83,0-5.65,0-8.48,0-.43-.38-1.18.45-1.23s1.56-.35,2.08.65c.93,1.8,2,3.55,3,5.29.14.24.19.63.58.67,0-.28.05-.55.05-.82,0-1.51,0-3,0-4.53,0-.75-.1-1.35,1-1.34s1,.6,1,1.28Z"/><path class="cls-9" d="M57.81,53.81c0,.67,0,1.35,0,2,0,.36.15.85-.51.84-.41,0-.93.16-1-.54,0-.4-.14-.45-.5-.22-2.85,1.76-5.65.83-6.71-2.27a6.51,6.51,0,0,1,.42-5.42A4.3,4.3,0,0,1,54,45.9a3.76,3.76,0,0,1,3.34,2.49c.16.4.6,1-.07,1.18s-1.43.46-1.8-.37a2,2,0,0,0-2.25-1.37,2.41,2.41,0,0,0-2.07,1.89,5.21,5.21,0,0,0,.19,3.84,2.2,2.2,0,0,0,2.18,1.37,2,2,0,0,0,2-1.15c.34-.72.33-1.23-.71-1.14-.58,0-1.17.18-1.17-.82s.55-.87,1.15-.86H55C57.8,51,57.8,51,57.81,53.81Z"/><path class="cls-9" d="M83.77,51.45c0,3.38-1.9,5.48-5,5.44-2.46,0-4.3-1.94-4.59-4.77a6.93,6.93,0,0,1,.48-3.28,4.47,4.47,0,0,1,4.81-2.94,4.57,4.57,0,0,1,4,3.54A6.83,6.83,0,0,1,83.77,51.45Z"/><path class="cls-13" d="M162.63,56.89c-2,0-3.37-.79-3.92-2.33-.15-.43-.57-1.12.15-1.28.56-.13,1.4-.51,1.82.5A2.15,2.15,0,0,0,163.63,55c.51-.2.93-.46,1-1.08a1.18,1.18,0,0,0-.86-1.17c-.73-.31-1.52-.48-2.27-.72-2.1-.66-2.89-1.72-2.6-3.51.25-1.6,1.66-2.59,3.64-2.59s3.23.78,3.63,2.16c.11.37.53,1.05-.18,1.16-.55.09-1.38.51-1.74-.42-.46-1.17-1.43-1.13-2.41-1a1,1,0,0,0-.89,1,.86.86,0,0,0,.65,1c.64.22,1.27.47,1.93.64,2.4.61,3.4,1.73,3.15,3.59S164.94,56.89,162.63,56.89Z"/><path class="cls-14" d="M2.13,50c0,.87,0,1.75,0,2.62,0,1.7.57,2.33,2,2.35s2-.59,2-2.29.07-3.66,0-5.48c0-1,.35-1.06,1.17-1.09s1,.4,1,1.13a59.62,59.62,0,0,1-.14,6.55c-.33,2.17-1.7,3.16-4.18,3.14-2.28,0-3.71-1.07-3.87-3.2C-.07,51.36,0,49,0,46.67c0-.94.73-.5,1.15-.55s1-.18,1,.62C2.1,47.81,2.13,48.89,2.13,50Z"/><path class="cls-15" d="M149.86,51.41c0-1.47,0-2.94,0-4.41,0-.63.12-.93.85-.92,1.88.05,3.76.06,5.63,0,.9,0,.79.49.81,1.06s0,1-.8,1c-1.15-.06-2.32,0-3.47,0-1-.06-.87.54-.86,1.15s-.18,1.23.83,1.17,2.07,0,3.11,0c.74,0,.7.41.73.91s-.06.89-.75.86c-1-.05-2.08,0-3.12,0s-.79.77-.79,1.31-.34,1.36.79,1.31,2.4,0,3.6,0c.9,0,.77.52.8,1.08s-.11.94-.84.92c-1.88-.05-3.75,0-5.63,0-.67,0-.91-.19-.89-.87C149.89,54.36,149.86,52.88,149.86,51.41Z"/><path class="cls-9" d="M111.22,50.06c0-1.08,0-2.16,0-3.23,0-.83.47-.75,1-.74s1.14-.17,1.11.77c0,2,0,4,0,6,0,1.51.65,2.12,2,2.12a1.74,1.74,0,0,0,2-2c0-1.95.06-3.91,0-5.85,0-.88.3-1.05,1.1-1.06s1.1.21,1.07,1.06c-.06,2,0,4,0,6a3.61,3.61,0,0,1-3.28,3.76c-2.61.28-4.48-.65-4.81-2.64a25.08,25.08,0,0,1,0-4.16Z"/><path class="cls-9" d="M65.89,51.45a4.78,4.78,0,0,0,.28,1.76,2.32,2.32,0,0,0,2.31,1.72,2,2,0,0,0,2.07-1.62c.29-1.2,1.21-.79,1.81-.67.76.16.29.86.16,1.27a3.85,3.85,0,0,1-3.26,2.94,4.31,4.31,0,0,1-4.69-2.14A6.47,6.47,0,0,1,64.62,48a4.24,4.24,0,0,1,4.49-2.09,3.82,3.82,0,0,1,3.31,2.55c.15.38.51,1,0,1.14S71,50,70.65,49.4c-.72-1.2-1.55-2-3-1.41C66.07,48.6,66,50,65.89,51.45Z"/><path class="cls-16" d="M138.81,52.32c0-1.11,0-2.23,0-3.34,0-.65-.18-1-.88-.9-.32,0-.64,0-1,0-.77.09-1.14-.1-1.14-1s.35-1,1.13-1c2,.05,4,.06,6,0,.87,0,1,.36,1,1.06s-.16,1-.92,1c-2,0-2,.06-2,2s-.05,3.66,0,5.48c0,.92-.27,1.12-1.14,1.14s-1.13-.36-1.09-1.18c.06-1.07,0-2.15,0-3.22Z"/><path class="cls-17" d="M29.78,52.4c0,1.19-.05,2.38,0,3.57,0,.86-.52.73-1,.71s-1.16.23-1.14-.73c0-2.06,0-4.13,0-6.19s.23-1.65-1.61-1.68a2.14,2.14,0,0,0-.36,0c-.9.14-.91-.41-.93-1.07s.21-1,.95-.94c2,.05,4.07.07,6.1,0,.93,0,.88.45.92,1.09s-.24.94-1,1c-2,0-2,0-2,2Z"/><path class="cls-18" d="M23.18,51.4c0,1.47-.06,2.94,0,4.41.06,1-.51.87-1.13.88s-1.05,0-1-.84q.08-4.41,0-8.82c0-.86.35-1,1.06-1s1.16,0,1.1.91C23.12,48.46,23.18,49.93,23.18,51.4Z"/><path class="cls-19" d="M34.27,51.24c0-1.43.06-2.86,0-4.29,0-1,.55-.83,1.15-.86s1,0,1,.86q-.08,4.47,0,8.94c0,.91-.52.8-1.08.8s-1.12.1-1.08-.8C34.32,54.34,34.27,52.79,34.27,51.24Z"/><path class="cls-20" d="M134.37,51.36c0,1.51-.05,3,0,4.53,0,.9-.52.79-1.08.8s-1.09.07-1.08-.81q.06-4.53,0-9.06c0-1,.65-.7,1.15-.73s1-.09,1,.74C134.33,48.34,134.36,49.85,134.37,51.36Z"/><path class="cls-21" d="M147.58,51.48c0,1.43-.05,2.86,0,4.28,0,.9-.4,1-1.08.93s-1.15.1-1.13-.87c.06-2.94.06-5.87,0-8.81,0-.9.41-.91,1.08-.93s1.19.06,1.13,1C147.52,48.54,147.58,50,147.58,51.48Z"/><path class="cls-17" d="M149.93,12.37a2.22,2.22,0,0,1-2.27,2.48,2.34,2.34,0,0,1-2.44-2.38A2.3,2.3,0,0,1,147.55,10,2.2,2.2,0,0,1,149.93,12.37Z"/><path class="cls-21" d="M.06,12.43A2.23,2.23,0,0,1,2.39,10a2.27,2.27,0,0,1,2.37,2.41A2.34,2.34,0,0,1,2.4,14.86,2.26,2.26,0,0,1,.06,12.43Z"/><path class="cls-22" d="M135,11.51c.19-.07.43,0,.53-.27,1.11.43,2.22.84,3.32,1.28.16.06.39.08.41.32a1.81,1.81,0,0,1-.57,0C137.45,12.4,136.23,12,135,11.51Z"/><path class="cls-23" d="M14.4,11.48c.09.21.3.19.48.23l-3.67,1.34c-.14.06-.29.15-.44,0,.1-.1.19-.24.31-.29C12.18,12.33,13.29,11.91,14.4,11.48Z"/><path class="cls-24" d="M137.45,30.7c0,1.75.05,3.5,0,5.25s-.76,2.69-2.14,2.77c-1.79.1-3.18-.84-3.27-2.57a112.13,112.13,0,0,1,0-11.45,2.79,2.79,0,0,1,2-2.55,2.23,2.23,0,0,1,3.12,1.66A27.88,27.88,0,0,1,137.45,30.7Z"/><path class="cls-24" d="M158.5,30.68c.16-2.18-.2-4.3.28-6.38.36-1.54,1-2.05,2.36-2a2.15,2.15,0,0,1,2.13,2.28c.11,1.71.09,3.42.07,5.14a41.29,41.29,0,0,1-.21,6.67c-.32,1.87-.87,2.34-2.41,2.33a1.8,1.8,0,0,1-1.92-1.59C158.3,35,158.7,32.77,158.5,30.68Z"/><path class="cls-25" d="M94.52,33.06a14.79,14.79,0,0,1-.21,3.36,3.09,3.09,0,0,1-2.58,2.47,2.06,2.06,0,0,1-2.44-1.43c-.43-1.93-.33-3.81,1.34-5.23,1.08-.92,2.22-1.79,3.33-2.69.14-.11.27-.35.48-.2s.08.29.08.44Z"/><path class="cls-26" d="M45.69,28.38c-2.88,0-2.89,0-2.62-2.86a6.66,6.66,0,0,1,.31-1.87,2.25,2.25,0,0,1,2.33-1.5A2.23,2.23,0,0,1,48,23.68a12.65,12.65,0,0,1,.37,4.24c0,.46-.34.46-.67.46C47.05,28.39,46.37,28.38,45.69,28.38Z"/><path class="cls-25" d="M76.43,51.33c0-2.21.94-3.48,2.53-3.51s2.66,1.31,2.68,3.51a4.83,4.83,0,0,1-.35,2.09,2.45,2.45,0,0,1-4.58-.11A5,5,0,0,1,76.43,51.33Z"/></g></g></svg>